<svg width="140" height="71" viewBox="0 0 140 71" fill="none" xmlns="http://www.w3.org/2000/svg">
<g clip-path="url(#clip0_142128_129)">
<path d="M140 0.0717773H0L60.3623 65.7718C65.6377 71.5718 74.3623 71.5718 79.6377 65.7718L140 0.0717773Z" fill="#81B3D3"/>
<path d="M37.2318 0.571777L69.797 38.4718L102.261 0.771777L37.2318 0.571777Z" fill="#23A9E1"/>
<path d="M61.9856 14.7718H79.5363C78.2175 13.9718 75.0725 10.1718 73.4494 11.5718C73.3479 11.6718 68.4783 5.87179 65.3334 8.67179C62.5943 11.1718 61.2754 8.37179 58.232 10.2718C54.5798 12.6718 60.2609 13.9718 61.9856 14.7718ZM89.0725 11.2718L79.1305 11.3718C83.087 6.87179 84.8117 7.37179 89.0725 11.2718Z" fill="white"/>
<path d="M99.0145 3.67178V1.27178H101.145L99.0145 3.67178ZM49.1014 13.0718C49.2029 13.1718 51.5362 10.6718 55.2898 8.17178C58.7391 5.87178 64.0145 3.27178 69.8985 3.27178C75.7826 3.27178 81.1594 5.97178 84.6087 8.27178C88.3623 10.6718 90.6956 13.0718 90.7971 13.1718L88.2609 16.1718C83.6956 16.7718 80.4493 20.0718 75.9855 19.3718C73.7536 18.9718 73.6522 17.7718 73.0435 16.4718C72.5362 15.4718 71.7246 15.6718 70.7101 15.2718C69.7971 14.8718 69.1884 14.1718 67.2609 14.5718C65.6377 14.9718 65.4348 17.4718 63.3043 17.3718C62.1884 17.2718 62.0869 15.7718 60.4638 13.7718C56.3043 8.87178 52.5107 9.48222 49.873 13.9822L49.1014 13.0718ZM40.5797 1.27178V3.17178L38.9565 1.27178H40.5797ZM95.2609 1.27178H98.5072V4.27178L95.2609 8.07178V1.27178ZM91.1014 12.6718V1.27178H94.6522V8.67178L91.1014 12.6718ZM90.5942 2.27178V12.1718C89.4783 11.0718 88.2609 10.0718 86.942 9.17178L90.5942 2.27178ZM86.4348 1.97178V8.77178C85.9275 8.47178 85.5217 8.07178 84.913 7.77178C84.2029 7.37178 83.4927 6.87178 82.6812 6.47178L86.4348 1.97178ZM81.971 1.77178V6.07178C80.9565 5.57178 79.8406 5.07178 78.8261 4.57178L81.971 1.77178ZM82.5797 1.27178H86.3333L82.5797 5.87178V1.27178ZM86.942 1.27178H90.5942L86.942 8.37178V1.27178ZM78.0145 1.27178H81.971L78.4203 4.37178C78.3188 4.37178 78.2174 4.27178 78.1159 4.27178L78.0145 1.27178ZM77.5072 1.67178V4.07178C76.4927 3.67178 75.4783 3.37178 74.3623 3.17178L77.5072 1.67178ZM73.2464 1.67178V2.97178C72.5362 2.87178 71.8261 2.77178 71.0145 2.67178L73.2464 1.67178ZM66.3478 1.67178L68.5797 2.67178C67.7681 2.67178 67.058 2.77178 66.3478 2.97178V1.67178ZM62.1884 1.67178L65.3333 3.17178C64.2174 3.37178 63.2029 3.67178 62.1884 4.07178V1.67178ZM65.8406 2.87178L62.4927 1.27178H65.8406V2.87178ZM69.3913 2.47178L66.5507 1.17178H69.3913V2.47178ZM70.1014 1.27178H73.0435L70.1014 2.57178V1.27178ZM73.8551 1.27178H77.1014L73.8551 2.87178V1.27178ZM61.2754 4.37178L57.7246 1.27178H61.6812V4.27178L61.2754 4.37178ZM57.6232 1.77178L60.7681 4.47178C59.6522 4.87178 58.6377 5.37178 57.6232 5.97178V1.77178ZM53.2609 1.97178L56.913 6.47178C55.5942 7.17178 54.3768 7.97178 53.2609 8.87178V1.97178ZM49 2.27178L52.6522 9.27178C51.3333 10.2718 50.1159 11.2718 49 12.4718V2.27178ZM52.7536 8.27178L49.1014 1.17178H52.7536V8.27178ZM57.1159 5.77178L53.3623 1.17178H57.1159V5.77178ZM44.3333 7.57178L41.0869 3.77178V1.27178H44.3333V7.57178ZM44.942 1.27178H48.4927V12.4718L44.942 8.27178V1.27178ZM36.5217 0.0717773V14.6718L70 54.5718L103.478 15.0718V0.0717773H36.5217Z" fill="#491213"/>
<path d="M67.3623 46.0718L70 41.8718L72.6376 46.0718L70 50.2718L67.3623 46.0718Z" fill="#23A9E1"/>
<path d="M75.2753 30.6718C71.826 28.6718 72.6376 27.1718 75.4782 25.7718C76.9999 25.0718 80.3478 22.3718 81.6666 23.2718L75.2753 30.6718ZM72.942 33.1718C70.913 33.0718 68.5796 32.7718 66.5507 33.2718C67.768 33.5718 70.8115 34.4718 67.9709 35.1718C68.9854 36.5718 70.6086 36.4718 71.6231 35.2718C71.2173 35.0718 70.913 34.7718 70.6086 34.5718C71.7246 34.2718 72.7391 33.6718 72.942 33.1718ZM74.1593 31.5718C73.2463 30.7718 72.2318 30.7718 71.4202 31.5718C70.2028 29.4718 65.942 30.1718 63.913 29.8718C65.0289 32.4718 73.6521 32.9718 74.1593 31.5718ZM67.2608 29.3718C65.6376 28.8718 60.3622 28.9718 63.8115 27.5718C64.9275 27.1718 70.6086 27.6718 67.2608 29.3718ZM69.2898 26.3718C68.7825 25.2718 69.6956 23.9718 71.0144 24.9718C72.2318 25.7718 70.4057 26.9718 69.2898 26.3718ZM66.3478 26.4718C64.0144 27.1718 60.9709 25.6718 64.7246 24.9718C67.0579 24.4718 69.4927 25.4718 66.3478 26.4718C66.4492 26.4718 66.2463 26.4718 66.3478 26.4718ZM63.7101 20.2718C63.2028 21.8718 62.1883 22.1718 62.2898 20.2718C62.3912 17.9718 63.913 18.5718 65.5362 17.6718C66.855 16.9718 67.5651 14.2718 69.8985 15.8718C70.913 16.5718 72.1304 15.9718 72.4347 17.0718C72.4347 16.9718 69.4927 23.7718 71.1159 23.7718C67.8695 23.7718 69.2898 19.9718 70.5072 17.3718C69.2898 17.9718 67.3622 21.6718 68.9854 22.3718C68.1738 23.4718 65.5362 24.9718 64.2173 23.8718C63.1014 22.8718 63.7101 21.5718 63.7101 20.2718ZM59.6521 23.0718C53.9709 23.0718 57.826 14.4718 59.7536 14.9718C61.9854 15.6718 61.6811 23.1718 59.6521 23.0718ZM53.3622 14.8718C50.7246 14.7718 51.8405 12.2718 53.6666 11.7718C55.3912 11.2718 58.942 12.8718 60.1593 13.9718C58.3333 14.5718 55.9999 14.4718 53.9709 14.5718C53.768 12.5718 53.2608 13.2718 53.3622 14.8718Z" fill="#DC6243"/>
<path d="M72.8406 25.8718C69.8986 22.8718 77.203 23.1718 78.4203 22.0718C79.2319 22.3718 85.5218 16.6718 87.0435 17.0718C85.9276 18.3718 83.5943 22.3718 81.9711 22.3718C80.6522 22.3718 79.3334 22.1718 78.3189 23.0718C76.7971 24.4718 74.3624 25.1718 72.8406 25.8718Z" fill="#F49774"/>
<path d="M73.7537 22.2718C72.1305 23.1718 70.6088 19.7718 73.4494 20.0718C75.2754 20.2718 77.203 19.8718 78.9276 20.1718C77.6088 21.6718 75.7827 22.4718 73.7537 22.2718Z" fill="#F4B1A4"/>
<path d="M51.8406 20.9718C52.145 21.3718 52.4493 21.7718 52.3479 22.3718C52.3479 22.7718 51.7392 23.3718 52.145 23.5718L53.6667 21.7718C53.2609 21.6718 50.116 17.9718 50.116 17.5718L47.9856 18.6718C48.087 19.0718 48.7971 18.6718 49.2029 18.6718C49.7102 18.6718 50.116 19.0718 50.5218 19.3718C49.4058 20.2718 46.6667 22.6718 46.3624 22.6718C46.2609 22.6718 45.6522 22.2718 45.6522 22.6718C45.6522 22.8718 46.2609 23.3718 46.3624 23.4718L47.7827 25.1718C48.1885 24.9718 47.6812 24.6718 47.8841 24.3718C47.9856 24.1718 51.1305 21.6718 51.8406 20.9718ZM48.3914 16.4718C48.6957 16.3718 48.7971 16.7718 49 16.4718L47.3769 14.5718C47.174 14.2718 46.8696 13.9718 46.8696 14.5718C46.9711 14.9718 42.8116 18.2718 42.6087 18.3718C42.3044 18.4718 42.1015 18.0718 41.8986 18.4718C42.4058 19.0718 42.8116 19.5718 43.3189 20.1718C43.5218 20.3718 43.6232 20.5718 43.8261 20.7718C44.029 20.9718 43.9276 20.3718 43.9276 20.3718C43.8261 20.0718 44.2319 19.7718 44.5363 19.5718C45.5508 18.5718 48.087 16.4718 48.3914 16.4718ZM42.6087 15.8718C41.4928 16.1718 40.174 15.7718 39.8696 14.5718C39.4638 13.3718 40.2754 12.1718 41.1884 11.4718C42.1015 10.7718 43.5218 10.8718 44.029 11.9718C44.2319 12.4718 44.1305 13.0718 43.9276 13.5718C43.8261 13.8718 43.5218 14.1718 43.9276 14.3718C44.5363 13.6718 45.0435 12.9718 45.6522 12.2718C44.9421 11.8718 44.6377 11.1718 44.1305 10.5718C43.5218 9.87177 42.8116 9.17177 41.7971 9.07177C39.8696 8.77177 38.145 10.7718 37.9421 12.4718C37.8406 13.3718 38.145 14.2718 38.7537 15.0718C39.2609 15.6718 39.9711 16.1718 40.3769 16.8718C40.5798 16.9718 42.2029 16.1718 42.5073 16.0718C42.7102 16.0718 42.6087 15.9718 42.6087 15.8718C42.6087 15.8718 42.1015 16.0718 42.6087 15.8718ZM68.4783 39.4718C67.7682 38.9718 65.8406 36.4718 65.4348 35.9718L65.2319 35.6718L65.029 35.7718C64.9276 35.8718 65.1305 36.1718 65.029 36.3718C64.5218 37.1718 61.2754 39.5718 61.0725 39.7718C60.6667 39.9718 60.2609 39.6718 60.058 39.9718C60.5653 40.5718 61.8841 42.2718 62.087 42.2718C62.3913 42.2718 62.1884 41.7718 62.1884 41.6718C62.2899 41.4718 63.9131 40.0718 64.5218 39.5718C64.7247 39.3718 64.9276 39.8718 65.1305 40.0718C65.3334 40.3718 65.4348 40.7718 65.3334 41.0718C65.2319 41.2718 64.8261 41.6718 65.1305 41.8718C65.5363 41.3718 66.6522 40.0718 66.8551 39.8718C67.058 39.6718 66.4493 39.8718 66.5508 39.7718C66.3479 39.8718 66.0435 39.9718 65.8406 39.7718C65.7392 39.7718 65.1305 39.0718 65.2319 38.9718C65.5363 38.7718 65.8406 38.3718 66.2464 38.2718C66.8551 38.1718 67.2609 39.2718 67.3624 39.6718C67.4638 40.0718 67.4638 40.4718 67.2609 40.7718C67.1595 41.0718 66.9566 41.2718 67.2609 41.3718L68.6812 39.4718C68.6812 39.5718 68.5798 39.5718 68.4783 39.4718C68.5798 39.5718 68.3769 39.4718 68.4783 39.4718ZM59.145 30.5718C58.4348 30.5718 57.7247 30.8718 57.116 31.3718C55.6957 32.5718 55.4928 34.6718 56.6087 36.1718C57.9276 37.8718 60.058 38.0718 61.7827 36.8718C63.2029 35.6718 63.4058 33.5718 62.2899 32.0718C61.4783 31.0718 60.2609 30.5718 59.145 30.5718ZM60.3624 31.9718C61.2754 31.8718 61.8841 32.7718 61.4783 33.7718C61.0725 34.7718 60.058 35.7718 59.0435 36.1718C57.8261 36.6718 57.0145 35.6718 57.5218 34.4718C57.9276 33.4718 58.9421 32.4718 59.9566 32.0718C60.058 32.0718 60.1595 31.9718 60.3624 31.9718ZM57.5218 27.3718C57.8261 27.3718 58.1305 27.7718 58.3334 27.3718L56.9131 25.6718C56.5073 25.8718 56.9131 26.0718 56.8116 26.2718C56.6087 26.5718 55.087 26.7718 54.6812 26.8718C54.7827 26.4718 55.2899 25.1718 55.4928 25.0718C55.8986 24.7718 56.1015 25.3718 56.3044 24.9718L54.4783 22.8718C54.2754 22.6718 54.0725 22.1718 53.8696 22.4718C53.8696 22.4718 53.8696 23.4718 53.7682 23.5718C53.6667 23.7718 53.1595 25.9718 52.5508 26.4718C52.2464 26.7718 51.029 27.7718 50.7247 27.8718C50.4203 27.9718 50.2174 27.4718 49.9131 27.8718L51.5363 29.7718C51.6377 29.8718 51.9421 30.3718 52.0435 30.3718C52.3479 30.4718 52.0435 29.7718 52.145 29.6718C52.2464 29.3718 53.7682 27.8718 54.4783 27.7718C55.3913 27.5718 56.5073 27.2718 57.5218 27.3718C57.7247 27.3718 57.3189 27.3718 57.5218 27.3718ZM82.0725 34.0718C82.174 34.4718 82.2754 34.9718 82.174 35.3718C82.0725 35.9718 81.5653 37.2718 80.7537 36.8718C79.9421 36.4718 79.3334 35.7718 78.6232 35.1718C79.1305 34.5718 79.6377 34.0718 80.5508 34.3718C80.7537 34.4718 80.9566 34.3718 80.7537 34.1718C80.4493 33.9718 78.7247 32.8718 78.6232 32.9718C78.4203 33.1718 78.9276 33.5718 78.7247 33.9718C78.6232 34.2718 78.3189 34.4718 78.116 34.7718C77.6087 34.3718 76.8986 33.9718 77.4058 33.2718C77.8116 32.8718 78.2174 32.4718 78.8261 32.3718C79.2319 32.2718 80.0435 32.6718 80.145 32.2718C79.4348 31.9718 78.7247 31.5718 78.0145 31.2718C78.116 31.7718 75.7827 34.1718 75.2754 34.7718C75.174 34.8718 74.8696 35.1718 74.8696 35.2718C74.8696 35.5718 75.2754 35.3718 75.2754 35.3718C75.5798 35.2718 79.7392 38.6718 79.8406 38.9718C79.9421 39.1718 79.7392 39.3718 79.8406 39.4718C79.8406 39.4718 79.9421 39.5718 80.0435 39.5718C80.3479 39.2718 82.9856 35.6718 83.5942 35.5718C83.087 34.7718 82.5798 33.9718 82.0725 33.1718C81.6667 33.3718 81.9711 33.8718 82.0725 34.0718ZM78.0145 38.4718C76.6957 37.5718 74.3624 39.2718 73.9566 39.4718C73.2464 39.7718 72.7392 39.0718 73.145 38.4718C73.4493 37.9718 74.058 37.6718 74.6667 37.6718C74.8696 37.6718 75.5798 37.7718 75.5798 37.6718C75.6812 37.5718 75.6812 37.5718 75.5798 37.4718C74.9711 37.0718 74.4638 36.6718 73.8551 36.3718C73.7537 37.0718 72.9421 37.4718 72.5363 37.9718C72.029 38.5718 71.5218 39.2718 71.5218 39.9718C71.5218 40.6718 71.9276 41.3718 72.6377 41.6718C73.3479 42.0718 74.1595 41.7718 74.8696 41.3718C75.2754 41.0718 75.6812 40.7718 76.087 40.5718C76.6957 40.2718 77.6087 40.5718 77.4058 41.3718C77.2029 42.0718 76.4928 42.6718 75.7827 42.8718C75.3769 42.9718 74.9711 42.9718 74.5653 42.7718C74.2609 42.6718 73.9566 42.2718 73.7537 42.6718L76.087 44.2718C76.1885 43.7718 76.3913 43.5718 76.7971 43.2718C77.3044 42.8718 77.7102 42.3718 78.116 41.8718C78.9276 40.9718 79.2319 39.3718 78.0145 38.4718ZM95.8696 10.3718C95.8696 10.4718 95.8696 10.4718 95.8696 10.3718L94.9566 11.3718L94.145 12.3718C93.9421 12.5718 93.8406 12.6718 94.145 12.8718C94.6522 12.5718 97.6957 17.6718 97.4928 18.3718C96.9856 18.5718 92.9276 15.0718 92.8261 14.8718C92.8261 14.7718 93.029 14.1718 92.7247 14.2718C92.6232 14.2718 92.2174 14.8718 92.116 14.9718L91.5073 15.6718C91.7102 15.9718 91.8116 15.6718 92.116 15.6718C92.3189 15.7718 93.3334 16.5718 93.6377 16.7718C93.1305 16.7718 91.9131 16.8718 91.7102 16.8718C91.1015 16.9718 91.4058 16.4718 91 16.2718L89.4783 18.0718L88.5653 19.0718C88.5653 19.0718 88.5653 19.0718 88.5653 19.1718C88.7682 19.3718 88.6667 19.2718 88.9711 19.1718C89.2754 19.0718 93.3334 22.3718 93.4348 22.5718C93.6377 22.8718 93.3334 23.1718 93.7392 23.3718L94.9566 21.9718C95.058 21.8718 95.058 21.8718 94.9566 21.8718C94.6522 21.6718 94.6522 21.9718 94.2464 21.9718C93.9421 21.8718 91.3044 19.7718 90.3913 18.9718L95.7682 18.7718C95.9711 18.7718 96.4783 19.3718 96.4783 19.5718C96.3769 19.7718 96.174 19.9718 96.4783 20.0718C96.7827 19.6718 97.087 19.3718 97.3913 18.9718L97.4928 18.7718C97.5942 18.7718 97.5942 18.6718 97.5942 18.5718L97.6957 18.4718C98 18.1718 98.9131 17.1718 98.8116 17.0718C98.5073 16.7718 98.4058 17.3718 98 17.0718C97.7971 16.8718 97.1884 15.8718 97.087 15.6718C96.8841 15.3718 97.4928 15.0718 97.6957 14.9718C98.2029 14.6718 99.8261 14.1718 100.029 15.1718C100.029 15.3718 99.8261 15.5718 99.9276 15.6718C99.9276 15.6718 100.029 15.8718 100.13 15.7718L102.261 13.1718C102.159 13.0718 102.159 13.0718 102.058 12.9718C101.551 13.4718 96.4783 11.4718 96.174 11.1718C96.0725 10.9718 96.0725 10.3718 95.8696 10.3718ZM95.6667 12.9718C96.4783 13.2718 97.1884 13.5718 98 13.9718C97.7971 14.0718 97.5942 14.1718 97.3913 14.2718C97.1885 14.3718 96.9856 14.5718 96.7827 14.7718L95.6667 12.9718ZM88.9711 20.6718C87.8551 20.5718 86.7392 21.0718 85.9276 21.9718C84.7102 23.4718 84.8116 25.6718 86.3334 26.8718C87.8551 28.0718 90.087 27.7718 91.3044 26.3718C92.5218 24.8718 92.4203 22.6718 90.8986 21.4718C90.3913 21.0718 89.6812 20.7718 88.9711 20.6718ZM87.5508 22.2718C88.1595 22.2718 88.8696 22.6718 89.2754 22.9718C90.087 23.4718 91.5073 24.6718 90.7971 25.6718C90.7971 25.5718 90.8986 25.5718 90.6957 25.7718C89.8841 26.5718 88.4638 25.8718 87.7537 25.2718C87.0435 24.7718 85.7247 23.5718 86.5363 22.5718C86.8406 22.3718 87.145 22.2718 87.5508 22.2718ZM84.4058 26.5718C83.1884 26.4718 81.9711 27.0718 81.058 28.1718C80.4493 28.9718 79.7392 29.6718 79.1305 30.4718C79.3334 30.7718 79.6377 30.3718 79.9421 30.5718C80.2464 30.7718 84.1015 33.8718 84.1015 34.0718C84.2029 34.3718 83.8986 34.4718 84.2029 34.6718C84.3044 34.7718 87.145 31.2718 87.4493 30.6718C87.8551 29.5718 87.5508 28.2718 86.6377 27.4718C86.7392 27.5718 86.8406 27.5718 86.6377 27.4718C85.8261 26.8718 85.116 26.5718 84.4058 26.5718ZM83.2899 28.1718C83.3913 28.1718 83.4928 28.1718 83.5942 28.1718C85.0145 28.5718 87.0435 30.2718 85.7247 31.7718C85.5218 31.9718 85.7247 31.7718 85.3189 32.1718C85.116 32.3718 81.058 29.1718 81.2609 28.9718C81.6667 28.4718 82.5798 28.0718 83.2899 28.1718Z" fill="white"/>
</g>
<defs>
<clipPath id="clip0_142128_129">
<rect width="140" height="70" fill="white" transform="translate(0 0.0717773)"/>
</clipPath>
</defs>
</svg>
